#!OML:ASF E:/inclinewalkrobotboard/Project1/Captureday1/Session1/subject1.ASF
:FULLY-SPECIFIED
:DEGREES
113
root 0 0 0 1.5479272977746952 -3.859371314348248 1.8689598034395827
lowerback 12.245273773749338 0.9497733148738559 0.004215307254181955
upperback -4.446131734771564 1.2005608132809402 -0.6308538188969427
thorax -11.739147255479914 0.555182269854315 -0.9240653198146016
lowerneck -6.062283924106769 1.863446676524284 4.765266338595178
upperneck 18.06757807671259 3.4953350989568053 -8.569074608718726
head 6.634200185483831 1.3073072952574227 -3.2733850330686494
rclavicle 2.4001089465113037E-15 -5.104829283364542E-16
rhumerus 21.271692180707312 15.895902054856167 -48.00632264725616
rradius 73.42453645136135
rwrist 26.483579175442614
rhand -34.609577375036295 -57.11916379120904
rfingers 7.125020000000028
rthumb -7.712867973734767 -87.0840999919906
lclavicle -5.932379641365213E-16 -6.685428524084681E-16
lhumerus 23.291806755987466 -14.660230716302095 44.79690681665657
lradius 71.96833678718365
lwrist -22.142417786783483
lhand -45.77112970319579 -71.84368404142268
lfingers 7.1250200000000286
lthumb -18.526387303965397 -42.62329387061678
rfemur -25.585428353098024 -1.716268517611467 17.984839738236246
rtibia 49.17082359441225
rfoot -35.29439991893551 -18.763759344113573
rtoes -21.571389871620813
lfemur -28.28479738741772 2.0521453944340866 -17.4805906507016
ltibia 49.26369146076388
lfoot -37.67819062962165 1.0554766261874953
ltoes -21.864328215819498
114
root 0 0 0 1.5618169575839955 -3.874619066250922 1.8546346409764096
lowerback 12.232799440053387 0.9596536045310994 0.014905739429315057
upperback -4.442503471301626 1.2142926437852077 -0.6297403766505593
thorax -11.726390764830963 0.5616913102389207 -0.9304329565508509
lowerneck -6.078127321917589 1.8612382456796366 4.761653698491228
upperneck 18.078463809394133 3.4915148180033952 -8.564454048033657
head 6.640116027890656 1.3053440448941873 -3.2716552987968868
rclavicle 2.3637455027787273E-15 -5.132000223279653E-16
rhumerus 21.259603180121637 15.87441619452567 -47.98824072714727
rradius 73.41640379849464
rwrist 26.502419229303268
rhand -34.61305170149809 -57.125616166672714
rfingers 7.125020000000028
rthumb -7.716245652452397 -87.09356827565188
lclavicle -6.226917249508719E-16 -6.527327172189558E-16
lhumerus 23.260415063800984 -14.61639812595847 44.79005338659837
lradius 71.93552664082179
lwrist -22.160075960647298
lhand -45.76309494816057 -71.84728792537959
lfingers 7.1250200000000286
lthumb -18.5181779601377 -42.62787911330889
rfemur -25.115618219386484 -1.5782144519532362 18.223469589646477
rtibia 48.34721556745198
rfoot -35.77375370542102 -18.62672293415784
rtoes -22.169087222829976
lfemur -28.181748397828382 1.8639207530734199 -17.186987897385215
ltibia 48.73485397726009
lfoot -37.24531831785565 0.902377415698318
ltoes -22.4457751618895
115
root 0 0 0 1.5654402059615031 -3.883764181277333 1.8433265817762403
lowerback 12.22625818410911 0.9667730529762308 0.0256502210669019
upperback -4.4410100823436345 1.2244420661550994 -0.6290600799490936
thorax -11.72006409940942 0.5664696789756136 -0.9367457494024782
lowerneck -6.0863809794573625 1.8609030704193985 4.762162610674539
upperneck 18.09415224443068 3.490700883170862 -8.566516684283238
head 6.646315006836785 1.3045594875417041 -3.2725397952466775
rclavicle 2.288136130097027E-15 -5.687763636061837E-16
rhumerus 21.205139051694765 15.793902026281492 -47.928731441721666
rradius 73.37296678145712
rwrist 26.565639811470433
rhand -34.615558046036725 -57.1436028280955
rfingers 7.1250200000000286
rthumb -7.718418840532269 -87.11187056009183
lclavicle -6.69832271660913E-16 -6.696365661946475E-16
lhumerus 23.21320250752364 -14.541963897484125 44.77407647413739
lradius 71.88285449496965
lwrist -22.19712191321939
lhand -45.75429736365372 -71.87610005184746
lfingers 7.1250200000000286
lthumb -18.50905143913884 -42.65822967937889
rfemur -24.763624366249594 -1.5802467304709888 18.269400924368576
rtibia 48.38639942532941
rfoot -35.70734549477716 -18.452250794474807
rtoes -22.483082619075837
lfemur -28.096650354051796 1.8104982722715235 -16.970620564454975
ltibia 48.95905216867228
lfoot -36.50744719515426 0.488752566888059
ltoes -22.751270389091488
116
root 0 0 0 1.5576256966097075 -3.8878521915965587 1.8360072285292381
lowerback 12.225500078809338 0.9718588779633484 0.03615974074841083
upperback -4.442053954569115 1.2318182582534618 -0.6295194388330564
thorax -11.720574968048268 0.5699413043698665 -0.9435975732269903
lowerneck -6.086136122976368 1.862677112455266 4.7672863151206775
upperneck 18.116192899814745 3.493163446520426 -8.57588631114908
head 6.653117925589118 1.305061766533159 -3.2762887214459537
rclavicle 2.1723846023378823E-15 -6.761260916094522E-16
rhumerus 21.107284399700433 15.653690620474682 -47.82746380528946
rradius 73.29408156578778
rwrist 26.673480346506697
rhand -34.616990297603714 -57.17134314253947
rfingers 7.1250200000000286
rthumb -7.7189154644712765 -87.13740942988957
lclavicle -7.388620180274324E-16 -7.021434271814281E-16
lhumerus 23.14743326861445 -14.432904243341392 44.74730715130845
lradius 71.80836984204431
lwrist -22.25613107850255
lhand -45.74434729558524 -71.93369573445628
lfingers 7.1250200000000286
lthumb -18.498446259750338 -42.7178448408813
rfemur -24.54102143989371 -1.7393467098345408 18.101300129584914
rtibia 49.39336368640948
rfoot -35.039615872143926 -18.237829865954154
rtoes -22.47812200865483
lfemur -28.027444049085602 1.9057963443800956 -16.843001153842298
ltibia 50.00115486262818
lfoot -35.38231757429979 -0.22344543328341615
ltoes -22.7227916540066
117
root 0 0 0 1.5485231291120396 -3.8827128469542487 1.8371376545008835
lowerback 12.230678743560258 0.9698175012987706 0.03786978179252348
upperback -4.444013255554803 1.2293157810415236 -0.6296541736591234
thorax -11.726250686211161 0.5687092168202552 -0.9442641793607243
lowerneck -6.07971704040318 1.864857770997406 4.771809574094619
upperneck 18.122570142667044 3.4966772639511285 -8.583518046968933
head 6.654058532337338 1.3063831202798628 -3.27922769064105
rclavicle 2.1166648473294572E-15 -7.355901875394444E-16
rhumerus 21.059813088393028 15.584373852722985 -47.7755783047736
rradius 73.25441170658718
rwrist 26.7280108847013
rhand -34.61749131429602 -57.190198638833834
rfingers 7.1250200000000286
rthumb -7.719574223506257 -87.15288391071977
lclavicle -7.7061218797687925E-16 -7.518591632987275E-16
lhumerus 23.129130090234895 -14.394246995225295 44.73481018731397
lradius 71.78385479020712
lwrist -22.280708395079316
lhand -45.74441200397952 -71.96813562473888
lfingers 7.1250200000000286
lthumb -18.49827685548343 -42.75298618099035
rfemur -24.574357745896194 -1.8788925399976462 17.92758700531842
rtibia 50.24237473145092
rfoot -34.5016852304515 -18.15068988257955
rtoes -22.29656990042016
lfemur -28.01785806136422 2.0180411544909287 -16.88097130294784
ltibia 50.730856153521295
lfoot -34.91365032494588 -0.5647371474519578
ltoes -22.509869134444543
118
root 0 0 0 1.5401210441694375 -3.8763654920722352 1.8415885758379114
lowerback 12.236017220056363 0.9666256562704176 0.035972360528549296
upperback -4.446024491456812 1.2249564150682892 -0.6302770262667997
thorax -11.73221376551929 0.5666390417407079 -0.9432504562789081
lowerneck -6.072451269817767 1.8664319099840114 4.775174162947947
upperneck 18.124114422209455 3.4992469923455154 -8.588707774647443
head 6.65336394398376 1.3074627911421075 -3.2812433506104632
rclavicle 2.0852872069264004E-15 -7.740587863608704E-16
rhumerus 21.032398403054778 15.54566820529544 -47.74745053043638
rradius 73.23156942316079
rwrist 26.757745093851625
rhand -34.61698130361885 -57.198958728882076
rfingers 7.125020000000029
rthumb -7.71898247724115 -87.15950179227463
lclavicle -7.889523995011828E-16 -7.777592026908651E-16
lhumerus 23.122682824202926 -14.37830537491107 44.72847014631532
lradius 71.77489239021467
lwrist -22.292433468033053
lhand -45.74554898534477 -71.98803029472325
lfingers 7.1250200000000286
lthumb -18.49922824870038 -42.773022972578715
rfemur -24.700584089164902 -1.9937467088266843 17.76574231556294
rtibia 50.942228795573634
rfoot -34.05002376077104 -18.122061534873396
rtoes -22.055675697041814
lfemur -28.021713875031352 2.131828141268574 -16.977500423997625
ltibia 51.28484172998971
lfoot -34.71114760568174 -0.7432222930242851
ltoes -22.239994636487907
119
root 0 0 0 1.534164803515469 -3.869999059812259 1.847146597347725
lowerback 12.240631015809525 0.9629573899694024 0.0320743907582563
upperback -4.447605098598422 1.2198166641231802 -0.6308496808394547
thorax -11.73723832428465 0.5642129639409053 -0.941049629678717
lowerneck -6.066181976814024 1.8673993344069026 4.777146956350339
upperneck 18.121784037674388 3.500893843303099 -8.59142916929488
head 6.65163782520071 1.3082506544564918 -3.28229889038066
rclavicle 2.0809680753011495E-15 -7.87652876123639E-16
rhumerus 21.025545844867423 15.536798939044536 -47.74140601281689
rradius 73.22544180175407
rwrist 26.764264714396482
rhand -34.6160614904138 -57.20098710603631
rfingers 7.125020000000029
rthumb -7.718077032495662 -87.16004219501119
lclavicle -7.89925528481206E-16 -7.908224246179768E-16
lhumerus 23.128895609561162 -14.384428682906366 44.728036803928305
lradius 71.78059866964058
lwrist -22.291667139998665
lhand -45.74804885403783 -71.99393320453572
lfingers 7.1250200000000286
lthumb -18.501692577042768 -42.77862352137362
rfemur -24.861682593207505 -2.0649126898800514 17.651830596013642
rtibia 51.37203239457489
rfoot -33.77167171641109 -18.14145704912479
rtoes -21.83424398646816
lfemur -28.038110923896358 2.2175725500992436 -17.091939244230993
ltibia 51.580836279074326
lfoot -34.76859027111154 -0.7576800635630878
ltoes -22.00618092314152
120
root 0 0 0 1.5313366217590652 -3.865013850966341 1.852271210804548
lowerback 12.243593073541915 0.9598149830335805 0.02759482887616832
upperback -4.448521033293075 1.2153193780735028 -0.6312803405445732
thorax -11.74039895418599 0.5621005305556012 -0.9385093413188115
lowerneck -6.062095597006434 1.8677399590499066 4.777732223966132
upperneck 18.11737274649925 3.501547807522128 -8.591838803884096
head 6.649624900602886 1.3086650450142678 -3.282457807146331
rclavicle 2.0980443898805464E-15 -7.776747710221943E-16
rhumerus 21.035770564068727 15.552458948151573 -47.75341216422375
rradius 73.23332929557623
rwrist 26.75164893614202
rhand -34.61509650724361 -57.19721677311141
rfingers 7.125020000000029
rthumb -7.717203833039873 -87.15573496011072
lclavicle -7.778797999692195E-16 -7.897645781543211E-16
lhumerus 23.14288740231784 -14.405284475374842 44.73196403517079
lradius 71.7958115757748
lwrist -22.28197516505483
lhand -45.75104125265389 -71.98834482972671
lfingers 7.1250200000000286
lthumb -18.504775589314836 -42.77252539440275
rfemur -25.005176483485926 -2.0880382063856624 17.600432132838648
rtibia 51.50570433574818
rfoot -33.69011224430909 -18.191364363887367
rtoes -21.683621700651255
lfemur -28.060224267533773 2.2609799086047038 -17.1890228999787
ltibia 51.61714495906976
lfoot -35.00201242745319 -0.6493351906990013
ltoes -21.860642625151442
